<svg width="24" height="16" viewBox="-7.5 0 24 16" fill="none" xmlns="http://www.w3.org/2000/svg">
<path d="M8.25431 7.5475L1.56671 0.91C1.45512 0.799194 1.30687 0.737381 1.15271 0.737381C0.998544 0.737381 0.850296 0.799194 0.738709 0.91L0.731509 0.9175C0.677227 0.971216 0.634003 1.03587 0.604467 1.10754C0.57493 1.17921 0.559699 1.25638 0.559699 1.33437C0.559699 1.41237 0.57493 1.48954 0.604467 1.56121C0.634003 1.63288 0.677227 1.69753 0.731509 1.75125L7.02911 8.00125L0.731509 14.2488C0.677227 14.3025 0.634003 14.3671 0.604467 14.4388C0.57493 14.5105 0.559699 14.5876 0.559699 14.6656C0.559699 14.7436 0.57493 14.8208 0.604467 14.8925C0.634003 14.9641 0.677227 15.0288 0.731509 15.0825L0.738709 15.09C0.850296 15.2008 0.998544 15.2626 1.15271 15.2626C1.30687 15.2626 1.45512 15.2008 1.56671 15.09L8.25431 8.4525C8.31312 8.39413 8.35995 8.32392 8.39194 8.24614C8.42393 8.16836 8.44043 8.08462 8.44043 8C8.44043 7.91538 8.42393 7.83164 8.39194 7.75386C8.35995 7.67608 8.31312 7.60587 8.25431 7.5475Z" fill="#7E221A"/>
</svg>
