<svg width="24" height="20" viewBox="-6 0 24 20" fill="none" xmlns="http://www.w3.org/2000/svg">
<g clip-path="url(#clip0_2004_458)">
<path d="M10.3442 9.54745L3.65655 2.90995C3.54497 2.79915 3.39672 2.73733 3.24255 2.73733C3.08839 2.73733 2.94014 2.79915 2.82855 2.90995L2.82135 2.91745C2.76707 2.97117 2.72385 3.03583 2.69431 3.10749C2.66477 3.17916 2.64954 3.25634 2.64954 3.33433C2.64954 3.41232 2.66477 3.4895 2.69431 3.56116C2.72385 3.63283 2.76707 3.69749 2.82135 3.7512L9.11895 10.0012L2.82135 16.2487C2.76707 16.3024 2.72385 16.3671 2.69431 16.4387C2.66477 16.5104 2.64954 16.5876 2.64954 16.6656C2.64954 16.7436 2.66477 16.8207 2.69431 16.8924C2.72385 16.9641 2.76707 17.0287 2.82135 17.0825L2.82855 17.09C2.94014 17.2008 3.08839 17.2626 3.24255 17.2626C3.39672 17.2626 3.54497 17.2008 3.65655 17.09L10.3442 10.4525C10.403 10.3941 10.4498 10.3239 10.4818 10.2461C10.5138 10.1683 10.5303 10.0846 10.5303 9.99995C10.5303 9.91533 10.5138 9.83159 10.4818 9.75381C10.4498 9.67603 10.403 9.60583 10.3442 9.54745Z" fill="#7E221A"/>
</g>
<defs>
<clipPath id="clip0_2004_458">
<rect width="20" height="12" fill="white" transform="translate(12) rotate(90)"/>
</clipPath>
</defs>
</svg>
