<svg width="50" height="50" viewBox="0 0 50 50" fill="none" xmlns="http://www.w3.org/2000/svg">
<rect x="0.5" y="0.5" width="49" height="49" rx="24.5" stroke="white"/>
<g clip-path="url(#clip0_423_3792)">
<path d="M29.3442 24.5474L22.6566 17.9099C22.545 17.7991 22.3967 17.7373 22.2426 17.7373C22.0884 17.7373 21.9401 17.7991 21.8286 17.9099L21.8214 17.9174C21.7671 17.9711 21.7238 18.0358 21.6943 18.1075C21.6648 18.1791 21.6495 18.2563 21.6495 18.3343C21.6495 18.4123 21.6648 18.4895 21.6943 18.5611C21.7238 18.6328 21.7671 18.6975 21.8214 18.7512L28.119 25.0012L21.8214 31.2487C21.7671 31.3024 21.7238 31.367 21.6943 31.4387C21.6648 31.5104 21.6495 31.5876 21.6495 31.6655C21.6495 31.7435 21.6648 31.8207 21.6943 31.8924C21.7238 31.964 21.7671 32.0287 21.8214 32.0824L21.8286 32.0899C21.9401 32.2007 22.0884 32.2625 22.2426 32.2625C22.3967 32.2625 22.545 32.2007 22.6566 32.0899L29.3442 25.4524C29.403 25.3941 29.4498 25.3238 29.4818 25.2461C29.5138 25.1683 29.5303 25.0845 29.5303 24.9999C29.5303 24.9153 29.5138 24.8316 29.4818 24.7538C29.4498 24.676 29.403 24.6058 29.3442 24.5474Z" fill="white"/>
</g>
<defs>
<clipPath id="clip0_423_3792">
<rect width="20" height="12" fill="white" transform="translate(31 15) rotate(90)"/>
</clipPath>
</defs>
</svg>
