<svg width="24" height="16" viewBox="-8 0 24 16" fill="none" xmlns="http://www.w3.org/2000/svg">
<path d="M0.245691 7.5475L6.93329 0.91C7.04488 0.799194 7.19313 0.737381 7.34729 0.737381C7.50146 0.737381 7.6497 0.799194 7.76129 0.91L7.76849 0.9175C7.82277 0.971216 7.866 1.03587 7.89553 1.10754C7.92507 1.17921 7.9403 1.25638 7.9403 1.33437C7.9403 1.41237 7.92507 1.48954 7.89553 1.56121C7.866 1.63288 7.82277 1.69753 7.76849 1.75125L1.47089 8.00125L7.76849 14.2488C7.82277 14.3025 7.866 14.3671 7.89553 14.4388C7.92507 14.5105 7.9403 14.5876 7.9403 14.6656C7.9403 14.7436 7.92507 14.8208 7.89553 14.8925C7.866 14.9641 7.82277 15.0288 7.76849 15.0825L7.76129 15.09C7.6497 15.2008 7.50146 15.2626 7.34729 15.2626C7.19313 15.2626 7.04488 15.2008 6.93329 15.09L0.245691 8.4525C0.186876 8.39413 0.140053 8.32392 0.10806 8.24614C0.0760672 8.16836 0.0595703 8.08462 0.0595703 8C0.0595703 7.91538 0.0760672 7.83164 0.10806 7.75386C0.140053 7.67608 0.186876 7.60587 0.245691 7.5475Z" fill="#7E221A"/>
</svg>
